<svg width="24" height="25" viewBox="0 0 24 25" fill="none" xmlns="http://www.w3.org/2000/svg">
<path d="M12 0.25C8.8174 0.25 5.76515 1.51428 3.51472 3.76472C1.26428 6.01515 0 9.0674 0 12.25C0 15.4326 1.26428 18.4848 3.51472 20.7353C5.76515 22.9857 8.8174 24.25 12 24.25C15.1826 24.25 18.2348 22.9857 20.4853 20.7353C22.7357 18.4848 24 15.4326 24 12.25C24 9.0674 22.7357 6.01515 20.4853 3.76472C18.2348 1.51428 15.1826 0.25 12 0.25Z" fill="#039BE5"/>
<path d="M13.6244 15.4306H16.7299L17.2175 12.2759H13.6238V10.5517C13.6238 9.24116 14.052 8.07905 15.2779 8.07905H17.2478V5.326C16.9017 5.27926 16.1697 5.17695 14.7865 5.17695C11.8983 5.17695 10.2051 6.70221 10.2051 10.1772V12.2759H7.236V15.4306H10.2051V24.1016C10.7931 24.19 11.3886 24.25 12 24.25C12.5526 24.25 13.092 24.1995 13.6244 24.1275V15.4306Z" fill="white"/>
</svg>
