<svg width="80" height="25" viewBox="0 0 80 25" fill="none" xmlns="http://www.w3.org/2000/svg">
<path d="M7.15652 21.1902C8.23603 21.1902 9.08085 21.015 9.69101 20.6644C10.3012 20.3138 10.6062 19.8191 10.6062 19.1802C10.6062 18.8218 10.528 18.5141 10.3716 18.257C10.2151 17.9999 9.98044 17.7623 9.66754 17.5441C9.40158 17.6688 9.0965 17.7856 8.75231 17.8947C8.40812 18.0038 8.00135 18.0583 7.532 18.0583C6.73411 18.0583 6.05746 17.8168 5.50207 17.3338C4.94667 16.8507 4.66897 16.1262 4.66897 15.1601C4.66897 14.6771 4.7472 14.2563 4.90365 13.898C5.0601 13.5396 5.26739 13.2396 5.52553 12.9981C5.78368 12.7566 6.08875 12.5735 6.44077 12.4489C6.79278 12.3242 7.16435 12.2619 7.55547 12.2619C7.99353 12.2619 8.4003 12.3203 8.77578 12.4372C9.15126 12.554 9.47198 12.6748 9.73794 12.7995C9.92568 12.6125 10.09 12.3904 10.2308 12.1333C10.3716 11.8762 10.442 11.5997 10.442 11.3036C10.442 10.6647 10.1369 10.1428 9.52674 9.73763C8.91658 9.3325 8.04829 9.12994 6.92185 9.12994C6.07702 9.12994 5.27522 9.25459 4.51643 9.5039C3.75765 9.75321 3.08883 10.1272 2.50997 10.6258C1.9311 11.1244 1.47349 11.7594 1.13712 12.5307C0.800752 13.302 0.632568 14.2018 0.632568 15.2302C0.632568 16.1184 0.789018 16.9286 1.10192 17.661C1.41482 18.3933 1.85679 19.0205 2.42783 19.5425C2.99887 20.0645 3.68334 20.4696 4.48123 20.7579C5.27913 21.0461 6.17089 21.1902 7.15652 21.1902ZM51.6978 21.0266C52.0576 21.0266 52.4057 21.0033 52.7421 20.9565C53.0784 20.9098 53.3248 20.863 53.4813 20.8163V13.4539C53.4813 12.6592 53.3483 11.9853 53.0823 11.4321C52.8164 10.879 52.4605 10.4349 52.0146 10.0999C51.5687 9.7649 51.0602 9.51948 50.4892 9.36367C49.9182 9.20785 49.3354 9.12994 48.7409 9.12994C47.9117 9.12994 47.2037 9.23122 46.6171 9.43378C46.0304 9.63635 45.5024 9.89345 45.033 10.2051C44.5793 9.8467 44.0435 9.57792 43.4255 9.39873C42.8075 9.21953 42.1778 9.12994 41.5364 9.12994C40.6759 9.12994 39.8506 9.2468 39.0605 9.48053C38.2705 9.71426 37.6095 10.0181 37.0775 10.3921C36.7646 10.6102 36.5182 10.8439 36.3383 11.0932C36.1584 11.3426 36.0684 11.6776 36.0684 12.0983V19.1568C36.0684 19.5464 36.1193 19.8619 36.221 20.1034C36.3227 20.3449 36.4674 20.5358 36.6551 20.676C36.8429 20.8163 37.0736 20.9098 37.3474 20.9565C37.6212 21.0033 37.9302 21.0266 38.2744 21.0266C38.6342 21.0266 38.9823 21.0033 39.3187 20.9565C39.655 20.9098 39.9015 20.863 40.0579 20.8163V12.6125C40.1987 12.5346 40.3708 12.4528 40.5742 12.3671C40.7776 12.2814 41.0201 12.2385 41.3017 12.2385C41.7085 12.2385 42.0566 12.3437 42.346 12.554C42.6354 12.7644 42.7801 13.1033 42.7801 13.5708V19.1568C42.7801 19.5464 42.831 19.8619 42.9327 20.1034C43.0344 20.3449 43.1791 20.5358 43.3668 20.676C43.5546 20.8163 43.7853 20.9098 44.0591 20.9565C44.3329 21.0033 44.6419 21.0266 44.9861 21.0266C45.3303 21.0266 45.6705 21.0033 46.0069 20.9565C46.3433 20.9098 46.5975 20.863 46.7696 20.8163V12.8813C46.7696 12.8267 46.7618 12.7683 46.7461 12.706C46.8713 12.5969 47.059 12.4917 47.3094 12.3904C47.5597 12.2891 47.7943 12.2385 48.0134 12.2385C48.4671 12.2385 48.8269 12.3437 49.0929 12.554C49.3588 12.7644 49.4918 13.1033 49.4918 13.5708V19.1568C49.4918 19.5464 49.5427 19.8619 49.6444 20.1034C49.7461 20.3449 49.8908 20.5358 50.0785 20.676C50.2663 20.8163 50.497 20.9098 50.7708 20.9565C51.0446 21.0033 51.3536 21.0266 51.6978 21.0266ZM58.1044 25C58.4642 25 58.8162 24.9727 59.1604 24.9182C59.5046 24.8637 59.7549 24.813 59.9114 24.7663V20.8864C60.4902 21.089 61.116 21.1902 61.7888 21.1902C62.6805 21.1902 63.4902 21.0656 64.2177 20.8163C64.9451 20.567 65.567 20.1891 66.0833 19.6827C66.5996 19.1763 66.9986 18.5491 67.2802 17.8012C67.5618 17.0533 67.7026 16.1807 67.7026 15.1835C67.7026 14.1395 67.5383 13.2396 67.2098 12.4839C66.8812 11.7282 66.4275 11.101 65.8486 10.6024C65.2698 10.1038 64.5775 9.73373 63.7718 9.49222C62.9661 9.2507 62.0939 9.12994 61.1552 9.12994C60.2634 9.12994 59.4577 9.22343 58.738 9.41041C58.0183 9.59739 57.416 9.8467 56.931 10.1583C56.6181 10.3765 56.3717 10.618 56.1918 10.8829C56.0119 11.1478 55.9219 11.4906 55.9219 11.9113V23.1302C55.9219 23.5197 55.9688 23.8353 56.0627 24.0768C56.1566 24.3183 56.2974 24.5092 56.4851 24.6494C56.6729 24.7896 56.9036 24.8831 57.1774 24.9299C57.4512 24.9766 57.7602 25 58.1044 25ZM61.2021 18.0583C60.9518 18.0583 60.7171 18.0271 60.4981 17.9648C60.279 17.9025 60.0756 17.8246 59.8879 17.7311V12.5891C60.06 12.4956 60.2634 12.4138 60.4981 12.3437C60.7327 12.2736 60.9987 12.2385 61.296 12.2385C62.0469 12.2385 62.6219 12.48 63.0208 12.9631C63.4198 13.4461 63.6192 14.1862 63.6192 15.1835C63.6192 17.1 62.8135 18.0583 61.2021 18.0583ZM73.9919 21.237C75.7284 21.237 77.0426 20.902 77.9344 20.232C78.8262 19.562 79.272 18.6348 79.272 17.4506C79.272 16.5001 78.9552 15.7249 78.3216 15.125C77.688 14.5251 76.6202 14.0538 75.1183 13.711L74.3908 13.5474C73.9527 13.4539 73.6555 13.3526 73.499 13.2435C73.3426 13.1345 73.2644 12.9942 73.2644 12.8228C73.2644 12.5735 73.4052 12.3904 73.6868 12.2736C73.9684 12.1567 74.3673 12.0983 74.8836 12.0983C75.1339 12.0983 75.4116 12.1216 75.7167 12.1684C76.0218 12.2151 76.323 12.2736 76.6202 12.3437C76.9175 12.4138 77.1912 12.4917 77.4416 12.5774C77.6919 12.6631 77.8796 12.7449 78.0048 12.8228C78.2082 12.6514 78.3764 12.4372 78.5093 12.1801C78.6423 11.923 78.7088 11.6152 78.7088 11.2569C78.7088 10.8829 78.5993 10.5596 78.3803 10.2869C78.1612 10.0142 77.864 9.79217 77.4885 9.62077C77.113 9.44937 76.6711 9.32082 76.1626 9.23512C75.6541 9.14942 75.1105 9.10657 74.5316 9.10657C73.765 9.10657 73.0649 9.19227 72.4313 9.36367C71.7977 9.53507 71.254 9.77658 70.8003 10.0882C70.3466 10.3999 69.9946 10.7894 69.7442 11.2569C69.4939 11.7243 69.3688 12.2463 69.3688 12.8228C69.3688 13.8824 69.7012 14.6965 70.3661 15.2653C71.031 15.834 72.0441 16.2508 73.4052 16.5157L74.1092 16.6559C74.5472 16.7339 74.8601 16.8351 75.0479 16.9598C75.2356 17.0844 75.3295 17.2558 75.3295 17.474C75.3295 17.7077 75.2004 17.8947 74.9423 18.0349C74.6842 18.1752 74.3126 18.2453 73.8276 18.2453C73.061 18.2453 72.3843 18.1479 71.7976 17.9531C71.211 17.7584 70.6908 17.5363 70.2371 17.287C70.018 17.4584 69.8303 17.6727 69.6738 17.9298C69.5174 18.1869 69.4392 18.5024 69.4392 18.8764C69.4392 19.2815 69.5526 19.6321 69.7794 19.9281C70.0063 20.2242 70.3192 20.4696 70.7181 20.6644C71.1171 20.8591 71.5982 21.0033 72.1614 21.0968C72.7246 21.1902 73.3348 21.237 73.9919 21.237Z" fill="#3C3C3C"/>
<path d="M18.1759 8.18511C19.6192 8.18511 20.7892 6.98873 20.7892 5.51291C20.7892 4.03709 19.6192 2.8407 18.1759 2.8407C16.7325 2.8407 15.5625 4.03709 15.5625 5.51291C15.5625 6.98873 16.7325 8.18511 18.1759 8.18511Z" fill="#A2D729"/>
<path d="M15.6452 11.6577C16.4695 11.6577 17.1376 10.9744 17.1376 10.1317C17.1376 9.28887 16.4695 8.60565 15.6452 8.60565C14.821 8.60565 14.1528 9.28887 14.1528 10.1317C14.1528 10.9744 14.821 11.6577 15.6452 11.6577Z" fill="#A2D729"/>
<path d="M30.7784 6.15039C32.2217 6.15039 33.3918 4.954 33.3918 3.47818C33.3918 2.00236 32.2217 0.805969 30.7784 0.805969C29.3351 0.805969 28.165 2.00236 28.165 3.47818C28.165 4.954 29.3351 6.15039 30.7784 6.15039Z" fill="#A2D729"/>
<path d="M24.706 4.1449L16.6675 18.3355H32.5918L24.706 4.1449Z" fill="#F15025"/>
<path d="M23.3723 18.3355H25.0486L23.3971 9.15338L23.3723 18.3355Z" fill="#B74C49"/>
<g opacity="0.5">
<path opacity="0.5" d="M24.9025 7.37251C24.8534 7.37267 24.8081 7.33906 24.7845 7.28491L24.2481 6.0788C24.2214 6.0262 24.22 5.95936 24.2445 5.9051C24.269 5.85084 24.3154 5.81803 24.365 5.81983C24.4147 5.82164 24.4595 5.85776 24.4814 5.91371L25.0178 7.11983C25.0406 7.17209 25.0397 7.23557 25.0154 7.28678C24.9912 7.33798 24.9472 7.3693 24.8998 7.36914L24.9025 7.37251Z" fill="white"/>
</g>
<g opacity="0.5">
<path opacity="0.5" d="M29.9312 16.6502C29.882 16.6504 29.8368 16.6153 29.8132 16.5589L29.2795 15.3041C29.2528 15.2492 29.2514 15.1795 29.2759 15.1229C29.3004 15.0663 29.3468 15.0321 29.3964 15.0339C29.446 15.0358 29.4908 15.0735 29.5128 15.1319L30.0492 16.3901C30.072 16.4447 30.0711 16.5109 30.0468 16.5643C30.0226 16.6177 29.9786 16.6504 29.9312 16.6502Z" fill="white"/>
</g>
<path d="M13.6422 20.4746L33.9405 20.5136C34.1213 20.5136 34.2679 20.3679 34.2679 20.1882C34.2679 20.0085 34.1213 19.8628 33.9405 19.8628L13.6422 19.8237C13.4614 19.8237 13.3148 19.9694 13.3148 20.1492C13.3148 20.3289 13.4614 20.4746 13.6422 20.4746Z" fill="#231F20"/>
<path d="M15.1154 12.0201V17.5848C15.1154 17.7645 15.262 17.9102 15.4428 17.9102C15.5374 17.9093 15.6269 17.8678 15.6884 17.7963C15.7498 17.8678 15.8394 17.9093 15.9339 17.9102H31.6487C31.7659 17.9107 31.8744 17.8489 31.9332 17.7481C31.9921 17.6473 31.9922 17.523 31.9336 17.4221L30.7091 15.2873V6.74493C32.2412 6.57233 33.3713 5.24079 33.2843 3.71057C33.1974 2.18035 31.9237 0.983774 30.3817 0.983774C28.8398 0.983774 27.5661 2.18035 27.4791 3.71057C27.3922 5.24079 28.5222 6.57233 30.0543 6.74493V14.1483L24.2333 4.01462L26.2828 0.500035C26.3473 0.399157 26.351 0.271242 26.2924 0.166862C26.2338 0.0624818 26.1223 -0.00155901 26.0021 2.88585e-05C25.8818 0.00167662 25.7721 0.0686926 25.7164 0.174611L23.8568 3.36051L22.03 0.174611C21.9396 0.0182488 21.7387 -0.0356593 21.5814 0.0542042C21.4241 0.144068 21.3699 0.343673 21.4603 0.500035L23.4639 4.01136L20.5632 9.00662C20.4987 9.1075 20.495 9.23542 20.5537 9.3398C20.6123 9.44418 20.7237 9.50822 20.844 9.5066C20.9642 9.50498 21.0739 9.43797 21.1296 9.33205L23.8535 4.66547L31.0856 17.2594H24.1187V8.39157C24.1187 8.21185 23.9721 8.06615 23.7913 8.06615C23.6105 8.06615 23.4639 8.21185 23.4639 8.39157V17.2594H16.5036L20.3897 10.5979C20.4542 10.4971 20.4579 10.3692 20.3993 10.2648C20.3407 10.1604 20.2293 10.0964 20.109 10.098C19.9888 10.0996 19.8791 10.1666 19.8233 10.2725L18.265 12.941V8.71049C19.7971 8.53789 20.9271 7.20635 20.8402 5.67613C20.7532 4.14591 19.4795 2.94934 17.9376 2.94934C16.3956 2.94934 15.1219 4.14591 15.0349 5.67613C14.948 7.20635 16.0781 8.53789 17.6102 8.71049V13.9238C17.6113 13.9582 17.6179 13.9923 17.6298 14.0247L15.7702 17.2171V12.0103C16.6855 11.8421 17.3209 11.0082 17.236 10.0869C17.151 9.16557 16.3736 8.46046 15.4428 8.46046C14.5121 8.46046 13.7347 9.16557 13.6497 10.0869C13.5647 11.0082 14.2002 11.8421 15.1154 12.0103V12.0201ZM28.1293 3.88445C28.1263 2.68952 29.0679 1.70288 30.2686 1.64285C31.4692 1.58281 32.5057 2.47054 32.6234 3.65973C32.7411 4.84891 31.8985 5.92039 30.7091 6.09408V3.99835C30.7091 3.81862 30.5625 3.67292 30.3817 3.67292C30.2009 3.67292 30.0543 3.81862 30.0543 3.99835V6.08757C28.9507 5.92642 28.132 4.98667 28.1293 3.87794V3.88445ZM15.6884 5.83699C15.6854 4.64207 16.627 3.65543 17.8277 3.59539C19.0283 3.53535 20.0648 4.42308 20.1825 5.61227C20.3002 6.80146 19.4576 7.87294 18.2682 8.04662V5.95089C18.2682 5.77116 18.1217 5.62547 17.9408 5.62547C17.76 5.62547 17.6134 5.77116 17.6134 5.95089V8.04011C16.5099 7.87896 15.6911 6.93922 15.6884 5.83048V5.83699ZM15.4428 9.12375C16.0127 9.12026 16.4981 9.53469 16.5805 10.0952C16.6629 10.6557 16.3173 11.1909 15.7702 11.3497V10.3441C15.7702 10.1644 15.6237 10.0187 15.4428 10.0187C15.262 10.0187 15.1154 10.1644 15.1154 10.3441V11.3497C14.5684 11.1909 14.2227 10.6557 14.3052 10.0952C14.3876 9.53469 14.873 9.12026 15.4428 9.12375Z" fill="#231F20"/>
<path d="M15.1973 18.5611C15.0165 18.5611 14.8699 18.7068 14.8699 18.8865C14.8699 19.0662 15.0165 19.2119 15.1973 19.2119H18.553C18.7338 19.2119 18.8804 19.0662 18.8804 18.8865C18.8804 18.7068 18.7338 18.5611 18.553 18.5611H15.1973Z" fill="#231F20"/>
<path d="M29.6027 18.5611C29.4218 18.5611 29.2753 18.7068 29.2753 18.8865C29.2753 19.0662 29.4218 19.2119 29.6027 19.2119H32.9584C33.1392 19.2119 33.2858 19.0662 33.2858 18.8865C33.2858 18.7068 33.1392 18.5611 32.9584 18.5611H29.6027Z" fill="#231F20"/>
<path d="M22.3999 18.5611C22.2191 18.5611 22.0725 18.7068 22.0725 18.8865C22.0725 19.0662 22.2191 19.2119 22.3999 19.2119H27.72C27.9008 19.2119 28.0474 19.0662 28.0474 18.8865C28.0474 18.7068 27.9008 18.5611 27.72 18.5611H22.3999Z" fill="#231F20"/>
</svg>
