<svg width="313" height="101" viewBox="0 0 313 101" fill="none" xmlns="http://www.w3.org/2000/svg">
<path d="M22.8936 28.8008C25.398 28.8008 27.7501 28.9845 29.9499 29.3518C32.1497 29.7191 34.0619 30.2701 35.6863 31.0048C37.3108 31.7395 38.5969 32.6912 39.5445 33.86C40.4921 35.0287 40.9659 36.4146 40.9659 38.0175C40.9659 39.5536 40.6782 40.8726 40.1029 41.9746C39.5275 43.0766 38.7999 43.995 37.92 44.7296C37.3785 44.3957 36.5663 44.045 35.4833 43.6777C34.4003 43.3104 33.2158 42.9764 31.9298 42.6759C30.6437 42.3754 29.3408 42.1249 28.0209 41.9245C26.701 41.7242 25.4996 41.624 24.4166 41.624C22.1829 41.624 20.4569 41.8745 19.2386 42.3754C18.0202 42.8763 17.411 43.661 17.411 44.7296C17.411 45.4643 17.7495 46.0654 18.4263 46.5329C19.1032 47.0004 20.3892 47.4345 22.2844 47.8352L25.4319 48.5365L26.0174 48.6716C32.208 50.1288 36.6324 52.1041 39.2906 54.5975C42.0319 57.1688 43.4026 60.4915 43.4026 64.5655C43.4026 69.6413 41.4735 73.6152 37.6154 76.487C33.7573 79.3589 28.0716 80.7948 20.5584 80.7948C17.7156 80.7948 15.0759 80.5945 12.6391 80.1938C10.2024 79.793 8.12108 79.1752 6.39508 78.3404C4.66907 77.5056 3.31535 76.4537 2.3339 75.1847C1.35244 73.9157 0.861718 72.413 0.861718 70.6765C0.861718 69.0736 1.20015 67.7212 1.87701 66.6192C2.55388 65.5172 3.36611 64.5989 4.31372 63.8642C6.27663 64.9328 8.5272 65.8845 11.0654 66.7194C13.6037 67.5542 16.5311 67.9716 19.8477 67.9716C21.946 67.9716 23.5536 67.6711 24.6704 67.07C25.7872 66.4689 26.3456 65.6675 26.3456 64.6657C26.3456 63.7306 25.9395 62.996 25.1273 62.4617C24.315 61.9274 22.9613 61.4933 21.0661 61.1593L18.0202 60.5582L17.4364 60.4425C11.841 59.303 7.65292 57.555 4.87213 55.1985C1.99546 52.7608 0.557129 49.2712 0.557129 44.7296C0.557129 42.2585 1.09862 40.0211 2.1816 38.0175C3.26458 36.0139 4.78753 34.3442 6.75043 33.0084C8.71334 31.6727 11.0654 30.6375 13.8067 29.9028C16.548 29.1681 19.577 28.8008 22.8936 28.8008ZM59.5458 19.6843C62.524 19.6843 64.8422 20.2019 66.5006 21.2371C68.1589 22.2723 68.988 24.4596 68.988 27.799V34.2106H82.2884L82.4399 34.4947C82.7915 35.1777 83.1302 36.0013 83.456 36.9656C83.8283 38.0676 84.0144 39.2864 84.0144 40.6222C84.0144 42.9598 83.4898 44.6461 82.4407 45.6813C81.3916 46.7165 79.9871 47.2341 78.2272 47.2341H68.988V62.3615L68.9932 62.6463C69.0518 64.2337 69.6085 65.3744 70.6633 66.0682C71.7801 66.8029 73.3538 67.1702 75.3844 67.1702C76.3997 67.1702 77.4488 67.0867 78.5318 66.9197C79.6148 66.7528 80.5624 66.5357 81.3746 66.2686C81.9838 67.0032 82.5084 67.8214 82.9483 68.723C83.3883 69.6246 83.6083 70.7099 83.6083 71.9789C83.6083 74.5168 82.6438 76.5872 80.7147 78.1901C78.7856 79.793 75.3844 80.5945 70.511 80.5945C64.5546 80.5945 59.9688 79.2587 56.7537 76.5872C53.5386 73.9157 51.9311 69.5745 51.9311 63.5637V20.6861L52.1421 20.6311C52.8721 20.4462 53.8678 20.2475 55.1293 20.035C56.5168 19.8012 57.989 19.6843 59.5458 19.6843ZM287.991 25.4233C291.579 25.4233 294.844 25.9576 297.789 27.0262C300.733 28.0948 303.271 29.5641 305.403 31.4341C307.536 33.3042 309.194 35.5416 310.378 38.1463C311.563 40.751 312.155 43.5895 312.155 46.6617C312.155 48.9325 311.512 50.6689 310.226 51.8711C309.016 53.0026 307.356 53.7495 305.246 54.1118L304.845 54.1753L279.767 57.882L279.879 58.1931C280.659 60.2421 282.144 61.7914 284.336 62.8409C286.637 63.9429 289.277 64.4939 292.255 64.4939C295.031 64.4939 297.653 64.1433 300.124 63.442C302.595 62.7408 304.608 61.9226 306.165 60.9876C307.248 61.6555 308.162 62.5905 308.906 63.7927C309.651 64.9948 310.023 66.2638 310.023 67.5996C310.023 70.605 308.602 72.8424 305.759 74.3117C303.593 75.4471 301.156 76.2151 298.449 76.6159C295.741 77.0166 293.203 77.2169 290.834 77.2169C286.841 77.2169 283.135 76.6659 279.717 75.564C276.298 74.462 273.32 72.809 270.782 70.605C268.244 68.401 266.247 65.6293 264.792 62.2899C263.336 58.9506 262.609 55.0435 262.609 50.5687C262.609 46.1608 263.336 42.3706 264.792 39.1982C266.247 36.0258 268.159 33.4211 270.528 31.3841C272.897 29.347 275.605 27.8443 278.65 26.8759C281.696 25.9075 284.81 25.4233 287.991 25.4233ZM247.075 25.5235C250.324 25.5235 252.896 26.1412 254.791 27.3768C256.686 28.6124 257.634 30.6327 257.634 33.4378C257.634 34.3728 257.498 35.2911 257.228 36.1927C256.957 37.0944 256.619 37.9125 256.212 38.6472C254.791 38.6472 253.336 38.714 251.847 38.8476C250.358 38.9811 248.902 39.1815 247.481 39.4486C246.059 39.7158 244.723 39.9996 243.47 40.3002C242.218 40.6007 241.152 40.9514 240.272 41.3521V75.5139L240.109 75.5601C239.429 75.7451 238.417 75.93 237.074 76.1149C235.619 76.3153 234.113 76.4155 232.556 76.4155C231.067 76.4155 229.73 76.3153 228.546 76.1149C227.361 75.9146 226.363 75.5139 225.551 74.9128C224.738 74.3117 224.112 73.4935 223.672 72.4583C223.232 71.4231 223.012 70.0707 223.012 68.401V38.3466L223.018 37.9671C223.062 36.5922 223.348 35.3997 223.875 34.3895C224.451 33.2875 225.28 32.3024 226.363 31.4341C227.446 30.5659 228.783 29.7812 230.373 29.0799C231.964 28.3786 233.673 27.7608 235.5 27.2265C237.328 26.6922 239.223 26.2748 241.186 25.9743C243.149 25.6737 245.112 25.5235 247.075 25.5235ZM287.991 37.8457C286.367 37.8457 284.962 38.1129 283.778 38.6472C282.593 39.1815 281.629 39.8661 280.884 40.7009C280.14 41.5357 279.581 42.4708 279.209 43.506C278.89 44.3933 278.683 45.2929 278.587 46.2047L278.549 46.6617L295.91 43.8566L295.863 43.5895C295.606 42.3428 294.877 41.0961 293.677 39.8494C292.391 38.5136 290.496 37.8457 287.991 37.8457Z" fill="white"/>
<path d="M151.164 100.242C158.357 100.242 164.88 99.2256 170.733 97.1933C176.585 95.1611 181.615 92.1724 185.821 88.2273C190.027 84.2823 193.289 79.4108 195.606 73.6128C197.922 67.8148 199.08 61.2098 199.08 53.798C199.08 46.8643 197.922 40.5283 195.606 34.7901C193.289 29.0518 190.027 24.1803 185.821 20.1755C181.615 16.1707 176.585 13.0625 170.733 10.8509C164.88 8.63925 158.357 7.53345 151.164 7.53345C143.97 7.53345 137.447 8.60937 131.595 10.7612C125.742 12.913 120.713 15.9914 116.506 19.9962C112.3 24.001 109.039 28.8725 106.722 34.6107C104.405 40.349 103.247 46.7447 103.247 53.798C103.247 60.9707 104.405 67.4263 106.722 73.1645C109.039 78.9027 112.3 83.7742 116.506 87.7791C120.713 91.7839 125.742 94.8622 131.595 97.014C137.447 99.1659 143.97 100.242 151.164 100.242Z" fill="#A2D729"/>
<path d="M113.533 48.6303C113.152 48.9834 112.638 49.2003 112.073 49.2003C111.373 49.2003 110.751 48.8676 110.363 48.3554L103.743 40.6043C102.989 39.7203 103.108 38.4025 104.009 37.662C104.909 36.9224 106.25 37.039 107.004 37.9238L110.254 41.7288C111.509 30.9367 116.496 21.2578 123.915 13.969C132.548 5.48795 144.475 0.241943 157.647 0.241943C168.941 0.241943 179.322 4.10407 187.499 10.5586C195.832 17.1363 201.868 26.4083 204.241 37.0292C204.488 38.1578 203.758 39.2701 202.609 39.514C201.461 39.7578 200.328 39.041 200.08 37.9124C197.921 28.2432 192.424 19.8013 184.837 13.8108C177.398 7.9401 167.944 4.42619 157.648 4.42619C145.65 4.42619 134.789 9.20329 126.927 16.9275C120.124 23.6104 115.568 32.5008 114.463 42.4106L118.692 38.9244C119.592 38.1839 120.934 38.3014 121.687 39.1862C122.44 40.0701 122.322 41.388 121.421 42.1284L113.533 48.6303Z" fill="black"/>
<path d="M159.497 31.4919C158.346 31.4919 157.414 32.425 157.414 33.5757C157.414 34.7264 158.346 35.6586 159.497 35.6586C160.648 35.6586 161.581 34.7264 161.581 33.5757C161.581 32.425 160.648 31.4919 159.497 31.4919Z" fill="#F15025"/>
<path d="M141.894 42.3416L139.601 35.3233H150.575C151.741 35.3233 152.686 34.3783 152.686 33.2128C152.686 32.0473 151.741 31.1023 150.575 31.1023H138.222L136.103 24.6178C135.814 23.7279 134.988 23.162 134.099 23.162L126.191 23.1587C125.025 23.1587 124.08 24.1029 124.08 25.2684C124.08 26.4338 125.025 27.3789 126.191 27.3789H132.572C136.353 38.9529 140.135 50.5278 143.916 62.1027C142.416 62.4103 141.076 63.1547 140.032 64.1976C138.64 65.5893 137.778 67.5122 137.778 69.6351C137.778 71.7588 138.64 73.6817 140.032 75.0726C141.425 76.465 143.348 77.3254 145.472 77.3254C147.597 77.3254 149.52 76.465 150.913 75.0726C152.305 73.6809 153.166 71.7588 153.166 69.6351C153.166 68.3865 152.868 67.2079 152.34 66.165H166.999C166.468 67.2087 166.168 68.3874 166.168 69.6351C166.168 71.7588 167.03 73.6809 168.422 75.0726C169.814 76.465 171.738 77.3254 173.863 77.3254C175.987 77.3254 177.911 76.465 179.303 75.0726C180.695 73.6809 181.556 71.7588 181.556 69.6351C181.556 67.518 180.696 65.5991 179.305 64.2075C177.874 62.7763 175.884 61.9448 173.858 61.9448H148.299L147.083 58.2214L173.864 58.2181C174.752 58.2181 175.578 57.6522 175.867 56.7623L183.304 33.9966C183.402 33.7548 183.455 33.49 183.455 33.2128C183.455 32.0473 182.51 31.1023 181.344 31.1023H167.464C166.298 31.1023 165.354 32.0473 165.354 33.2128C165.354 34.3783 166.298 35.3233 167.464 35.3233H178.438L176.145 42.3416H141.894Z" fill="black"/>
<path d="M148.013 66.935C148.673 67.5944 149.081 68.506 149.081 69.5128C149.081 70.5204 148.673 71.4312 148.013 72.0914C147.354 72.7507 146.442 73.1586 145.435 73.1586C144.428 73.1586 143.516 72.7507 142.857 72.0905C142.197 71.4312 141.789 70.5195 141.789 69.5128C141.789 68.506 142.197 67.5944 142.857 66.935C143.516 66.2748 144.428 65.8669 145.435 65.8669C146.442 65.8669 147.354 66.2748 148.013 66.935Z" fill="white"/>
<path d="M174.752 65.8722C175.698 65.9102 176.553 66.3097 177.179 66.9371C177.838 67.5946 178.246 68.5076 178.246 69.518C178.246 70.5242 177.837 71.4345 177.178 72.0929C176.518 72.7513 175.607 73.1586 174.6 73.1586C173.593 73.1586 172.682 72.7513 172.022 72.0929C171.362 71.4337 170.954 70.5233 170.954 69.518C170.954 68.5076 171.362 67.5946 172.02 66.9371C172.624 66.333 173.44 65.9395 174.346 65.8774C174.501 65.8645 174.593 65.8645 174.752 65.8722Z" fill="white"/>
<path d="M176.163 47.1169H143.871L146.364 54.4086H173.67L176.163 47.1169Z" fill="#F15025"/>
<path d="M197.177 54.2678L201.405 50.7817C200.301 60.6914 195.744 69.5818 188.942 76.2647C181.08 83.9881 170.218 88.7652 158.221 88.7652C147.925 88.7652 138.47 85.2521 131.032 79.3806C123.444 73.3917 117.947 64.949 115.788 55.2799C115.54 54.1512 114.408 53.4344 113.26 53.6783C112.111 53.9213 111.38 55.0344 111.628 56.1622C114 66.7839 120.036 76.0559 128.37 82.6336C136.547 89.0882 146.928 92.9503 158.222 92.9503C171.395 92.9503 183.32 87.7043 191.953 79.2233C199.373 71.9345 204.361 62.2555 205.615 51.4634L208.865 55.2684C209.618 56.1524 210.96 56.2699 211.86 55.5294C212.76 54.7898 212.88 53.4719 212.127 52.588L205.506 44.8368C205.118 44.3238 204.497 43.9919 203.797 43.9919C203.231 43.9919 202.717 44.2089 202.336 44.562L194.448 51.0638C193.548 51.8043 193.428 53.1221 194.182 54.0069C194.936 54.8909 196.276 55.0083 197.177 54.2678Z" fill="black"/>
</svg>
