<svg width="26" height="24" viewBox="0 0 26 24" fill="none" xmlns="http://www.w3.org/2000/svg">
<path d="M23.4731 12.5869C23.9993 12.5869 24.4039 12.182 24.4039 11.6561V6.47566C24.4039 5.94944 23.9991 5.54488 23.4731 5.54488H22.2185V4.04748L22.1779 3.4806C22.0565 1.53801 20.8826 0 19.1425 0H4.61301C2.87285 0 1.82036 1.37598 1.5776 3.4806L1.53723 4.04719V21.0455C1.53723 22.6642 2.87281 23.9595 4.45122 23.9595H5.01782L5.01753 1.1332H4.45094C3.64157 1.1332 2.87253 1.45702 2.34632 2.02359C2.79153 1.1332 3.64157 0.404851 4.61268 0.404851H19.1017C20.0731 0.404851 20.9229 1.1332 21.368 2.02359C20.8418 1.45699 20.1135 1.1332 19.2634 1.1332H18.4541V7.40645L16.6329 5.58528L14.771 7.44714L14.7713 1.13328H6.59595V24H19.2637C20.8824 24 22.1777 22.6644 22.1777 21.086V20.7218H23.473C23.9992 20.7218 24.4037 20.317 24.4037 19.791V14.57C24.4037 14.0438 23.9989 13.6392 23.473 13.6392H22.2184V12.587L23.4731 12.5869ZM22.2183 5.94945H23.4731C23.7565 5.94945 23.9993 6.19224 23.9993 6.47568V11.6561C23.9993 11.9395 23.7565 12.1823 23.4731 12.1823H22.2185L22.2183 5.94945ZM23.4731 14.0439C23.7565 14.0439 23.9993 14.2867 23.9993 14.5701V19.7505C23.9993 20.034 23.7565 20.2767 23.4731 20.2767H22.2185L22.2183 14.0439L23.4731 14.0439Z" fill="black"/>
</svg>
