<svg width="326" height="116" viewBox="0 0 326 116" fill="none" xmlns="http://www.w3.org/2000/svg">
<path d="M22.9747 102.838C30.5761 102.838 36.4704 101.567 40.6576 99.0244C41.9459 98.2421 43.0572 97.3132 43.9912 96.2376C44.9253 95.162 45.3923 93.7768 45.3923 92.0819V70.1789C45.3923 67.1151 44.8448 64.4587 43.7497 62.2098C42.6545 59.9608 41.0924 58.103 39.0632 56.6363C37.034 55.1695 34.5861 54.0777 31.7195 53.3606C28.8529 52.6435 25.6803 52.285 22.2017 52.285C19.9471 52.285 17.5475 52.448 15.003 52.7739C12.4584 53.0998 10.2521 53.6213 8.38396 54.3384C6.70909 55.0555 5.46903 55.9192 4.6638 56.9296C3.85857 57.94 3.45596 59.2926 3.45596 60.9875C3.45596 62.2913 3.74584 63.5461 4.3256 64.7521C4.90537 65.9581 5.61397 66.8544 6.45141 67.4411C8.31954 66.6588 10.4131 66.007 12.7322 65.4855C15.0513 64.964 17.4347 64.7032 19.8826 64.7032C22.9747 64.7032 25.3421 65.1106 26.9848 65.9255C28.6274 66.7403 29.4488 68.0929 29.4488 69.9834V70.6678L16.7906 72.0368C11.2506 72.6235 7.16001 74.1228 4.51886 76.5347C1.87771 78.9466 0.557129 82.4016 0.557129 86.8995C0.557129 89.5722 1.08858 91.9189 2.15148 93.9397C3.21439 95.9606 4.72822 97.6228 6.69298 98.9266C8.65774 100.23 11.009 101.208 13.7468 101.86C16.4846 102.512 19.5606 102.838 22.9747 102.838ZM22.9747 90.713C20.5913 90.713 18.9003 90.3056 17.9018 89.4907C16.9033 88.6759 16.4041 87.6166 16.4041 86.3128C16.4041 85.0091 16.9838 84.0313 18.1434 83.3794C19.3029 82.7275 20.7845 82.3364 22.5882 82.206L29.5454 81.6193V89.4418C28.9012 89.8329 27.9188 90.1426 26.5983 90.3707C25.2777 90.5989 24.0698 90.713 22.9747 90.713ZM80.2749 102.74C84.7198 102.74 88.1984 102.007 90.7107 100.54C93.223 99.0733 94.4792 97.0036 94.4792 94.3309C94.4792 92.8316 94.1571 91.5441 93.5129 90.4685C92.8687 89.3929 91.9024 88.3988 90.614 87.4862C89.5189 88.0077 88.2628 88.4966 86.8456 88.9529C85.4284 89.4092 83.7535 89.6374 81.8209 89.6374C78.5356 89.6374 75.7495 88.627 73.4626 86.6062C71.1758 84.5854 70.0324 81.5541 70.0324 77.5125C70.0324 75.4917 70.3545 73.7317 70.9986 72.2323C71.6428 70.733 72.4964 69.4782 73.5593 68.4678C74.6222 67.4574 75.8783 66.6914 77.3278 66.1699C78.7772 65.6484 80.3071 65.3877 81.9176 65.3877C83.7213 65.3877 85.3962 65.6321 86.9422 66.121C88.4882 66.6099 89.8088 67.1151 90.9039 67.6366C91.6769 66.8544 92.3533 65.9255 92.9331 64.8499C93.5129 63.7743 93.8028 62.6172 93.8028 61.3786C93.8028 58.706 92.5466 56.5222 90.0343 54.8273C87.522 53.1324 83.9467 52.285 79.3086 52.285C75.83 52.285 72.5286 52.8065 69.4043 53.8495C66.28 54.8925 63.5261 56.457 61.1426 58.543C58.7591 60.629 56.8749 63.2854 55.4899 66.5122C54.1049 69.7389 53.4124 73.5035 53.4124 77.8059C53.4124 81.5216 54.0566 84.9113 55.345 87.9751C56.6333 91.0389 58.4532 93.6627 60.8044 95.8465C63.1557 98.0303 65.974 99.7251 69.2593 100.931C72.5447 102.137 76.2165 102.74 80.2749 102.74ZM120.569 102.74C125.207 102.74 128.444 101.958 130.28 100.393C132.116 98.8288 133.034 96.808 133.034 94.3309C133.034 93.0923 132.824 92.033 132.405 91.153C131.987 90.273 131.488 89.4744 130.908 88.7573C130.135 89.0181 129.233 89.23 128.202 89.3929C127.171 89.5559 126.173 89.6374 125.207 89.6374C123.274 89.6374 121.776 89.2788 120.714 88.5618C119.651 87.8447 119.119 86.6388 119.119 84.9439V70.1789H127.912C129.587 70.1789 130.924 69.6737 131.922 68.6633C132.921 67.6529 133.42 66.007 133.42 63.7254C133.42 62.4216 133.243 61.232 132.889 60.1564C132.534 59.0808 132.164 58.1845 131.777 57.4674H119.119V51.2094C119.119 47.95 118.33 45.8152 116.752 44.8048C115.174 43.7943 112.967 43.2891 110.133 43.2891C108.651 43.2891 107.25 43.4032 105.93 43.6314C104.609 43.8595 103.594 44.0714 102.886 44.267V86.1173C102.886 91.9841 104.416 96.2213 107.476 98.8288C110.535 101.436 114.9 102.74 120.569 102.74ZM149.943 49.3516C152.649 49.3516 154.823 48.5041 156.466 46.8093C158.108 45.1144 158.93 43.0284 158.93 40.5513C158.93 38.0742 158.108 35.9882 156.466 34.2933C154.823 32.5984 152.649 31.751 149.943 31.751C147.238 31.751 145.064 32.5984 143.421 34.2933C141.778 35.9882 140.957 38.0742 140.957 40.5513C140.957 43.0284 141.778 45.1144 143.421 46.8093C145.064 48.5041 147.238 49.3516 149.943 49.3516ZM150.813 102.056C152.23 102.056 153.631 101.942 155.016 101.713C156.401 101.485 157.448 101.306 158.157 101.176V61.3786C158.157 59.749 157.947 58.4289 157.529 57.4185C157.11 56.4081 156.514 55.6096 155.741 55.0229C154.968 54.4362 154.018 54.0451 152.891 53.8495C151.763 53.6539 150.491 53.5562 149.074 53.5562C147.657 53.5562 146.255 53.6702 144.87 53.8984C143.485 54.1265 142.439 54.3058 141.73 54.4362V94.2331C141.73 95.8628 141.939 97.1828 142.358 98.1932C142.777 99.2036 143.373 100.002 144.146 100.589C144.919 101.176 145.869 101.567 146.996 101.762C148.124 101.958 149.396 102.056 150.813 102.056ZM318.213 102.056C319.695 102.056 321.128 101.958 322.513 101.762C323.898 101.567 324.913 101.371 325.557 101.176V70.5701C325.557 64.8336 323.592 60.3519 319.663 57.1252C315.733 53.8984 310.129 52.285 302.85 52.285C298.791 52.285 295.103 52.7739 291.786 53.7517C288.468 54.7295 285.714 56.0007 283.524 57.5652C282.236 58.4778 281.221 59.4882 280.48 60.5964C279.74 61.7046 279.369 63.1387 279.369 64.8988V94.2331C279.369 95.8628 279.578 97.1828 279.997 98.1932C280.416 99.2036 281.012 100.002 281.785 100.589C282.558 101.176 283.508 101.567 284.635 101.762C285.763 101.958 287.035 102.056 288.452 102.056C289.934 102.056 291.367 101.958 292.752 101.762C294.137 101.567 295.152 101.371 295.796 101.176V67.2455C296.698 66.5936 297.777 66.1047 299.033 65.7788C300.289 65.4529 301.561 65.2899 302.85 65.2899C304.782 65.2899 306.312 65.7625 307.439 66.7077C308.567 67.6529 309.13 69.1359 309.13 71.1568V94.2331C309.13 95.8628 309.34 97.1828 309.759 98.1932C310.177 99.2036 310.773 100.002 311.546 100.589C312.319 101.176 313.269 101.567 314.397 101.762C315.524 101.958 316.796 102.056 318.213 102.056Z" fill="white"/>
<path d="M260.126 66.3513C260.126 45.1358 243.13 27.9373 222.164 27.9373C201.199 27.9373 184.204 45.1358 184.204 66.3513C184.204 87.5667 201.199 104.765 222.164 104.765C243.13 104.765 260.126 87.5667 260.126 66.3513Z" fill="#97C9E8"/>
<path d="M224.147 27.9373C222.301 27.9373 220.487 28.0864 218.715 28.3729C236.008 31.1696 249.261 47.1072 249.261 66.3513C249.261 85.5944 236.008 101.533 218.715 104.33C220.487 104.616 222.301 104.765 224.147 104.765C244.018 104.765 260.127 87.5667 260.127 66.3513C260.127 45.1358 244.018 27.9373 224.147 27.9373Z" fill="#60B6FF"/>
<path d="M216.384 42.1985C210.697 45.7329 206.431 51.3892 209.631 57.7522C212.829 64.1152 219.938 61.6409 226.515 60.757C233.09 59.8732 228.114 80.0223 232.024 84.9719C235.934 89.9206 246.953 80.0223 245.887 73.6593C244.308 64.2388 243.754 60.9333 256.551 54.2169L256.586 54.2048C252.272 39.7181 239.216 28.9697 223.495 28.0029L223.493 28.0582C223.493 28.0582 222.072 38.6632 216.384 42.1985Z" fill="#BAEB6C"/>
<path d="M244.44 36.155C244.444 36.1588 244.45 36.1625 244.456 36.1662C244.45 36.1625 244.446 36.1588 244.44 36.155Z" fill="#BAEB6C"/>
<path d="M248.957 40.4397C248.959 40.4416 248.961 40.4434 248.961 40.4434C248.961 40.4434 248.959 40.4416 248.957 40.4397Z" fill="#BAEB6C"/>
<path d="M196.656 81.2594C194.948 78.6761 199.677 72.5991 200.744 68.0038C201.81 63.4084 195.411 63.7617 193.457 62.1712C191.501 60.5798 188.836 53.6872 186.88 52.0967L186.567 51.8513C185.078 55.8359 184.263 60.1452 184.263 64.6456C184.263 76.7815 190.184 87.5403 199.31 94.2255L199.321 93.4558C199.321 93.4558 200.744 87.4461 196.656 81.2594Z" fill="#BAEB6C"/>
<path d="M245.886 73.6593C245.879 73.6136 245.871 73.5686 245.864 73.522C245.156 76.3531 244.12 79.0538 242.796 81.5818C244.897 79.1238 246.3 76.1259 245.886 73.6593Z" fill="#BAEB6C"/>
<path d="M226.055 27.9373L226.053 27.9953C226.053 27.9953 225.93 28.9248 225.616 30.3341C238.946 35.436 248.706 47.9133 250.048 62.8591C251.728 60.5357 254.801 58.2831 260.09 55.4528L260.126 55.4401C255.684 40.2341 242.241 28.952 226.055 27.9373Z" fill="#96D629"/>
<path d="M213.543 41.5452C195.436 38.4298 184.204 15.3129 184.204 15.3129C184.204 15.3129 202.328 -2.75362 220.434 0.360933C238.541 3.47638 249.773 26.5932 249.773 26.5932C249.773 26.5932 231.649 44.6598 213.543 41.5452Z" fill="#49CB5C"/>
<path d="M218.188 0.360428C214.873 -0.234376 211.558 -0.0552181 208.362 0.621103C224.999 4.57153 235.263 26.5927 235.263 26.5927C235.263 26.5927 223.885 38.4171 210.345 41.2837C210.753 41.3813 211.164 41.47 211.58 41.5452C228.943 44.6599 246.323 26.5927 246.323 26.5927C246.323 26.5927 235.552 3.47509 218.188 0.360428Z" fill="#07B128"/>
<path d="M261.516 22.4529C266.193 10.8809 282.398 6.98438 282.398 6.98438C282.398 6.98438 291.02 21.8508 286.344 33.4229C281.667 44.995 265.462 48.8906 265.462 48.8906C265.462 48.8906 256.84 34.025 261.516 22.4529Z" fill="#49CB5C"/>
<path d="M282.32 6.98438C282.32 6.98438 278.58 7.872 274.153 10.0537C276.424 15.0122 280.025 25.074 276.601 33.4229C274.118 39.4762 268.434 43.4287 263.577 45.8221C264.454 47.7361 265.133 48.8906 265.133 48.8906C265.133 48.8906 281.578 44.995 286.323 33.4229C291.069 21.8508 282.32 6.98438 282.32 6.98438Z" fill="#07B128"/>
<path d="M286.021 13.431C284.374 8.19525 282.143 4.44623 282.048 4.28885C281.682 3.67866 280.929 3.36126 280.247 3.51952C280.07 3.56085 275.855 4.55525 270.995 7.01005C264.432 10.323 259.848 14.7455 257.736 19.7984C255.978 24.0055 255.725 29.1499 256.972 34.8323C254.316 31.8324 251.327 29.2079 248.07 26.9984C247.075 25.0113 244.445 20.1193 240.333 15.0066C238.979 13.3238 236.374 15.4357 237.741 17.1361C240.513 20.5818 242.598 23.9703 243.902 26.2985L228.694 23.3012L214.244 3.37181C215.647 3.39203 217.055 3.52919 218.456 3.80703C222.897 4.68626 227.285 6.97313 231.498 10.6043C233.149 12.0269 235.293 9.4376 233.664 8.03435C229.009 4.02332 224.109 1.48587 219.097 0.493224C211.447 -1.0208 202.525 0.966248 193.293 6.24161C186.411 10.1735 181.809 14.4923 181.617 14.6743C181.002 15.2554 180.903 16.3123 181.419 16.9919C182.094 18.3916 184.651 23.441 188.908 28.8773C191.417 32.083 194.063 34.8262 196.8 37.0805C196.023 37.739 195.266 38.4283 194.534 39.1537C190.621 43.0232 187.626 47.5873 185.659 52.5769C183.921 56.9862 182.986 61.7287 182.934 66.6172C182.848 74.6112 185.138 82.3211 189.56 88.9144C193.879 95.3548 199.917 100.3 207.021 103.213C209.009 104.027 210.266 100.901 208.277 100.085C205.703 99.0291 203.285 97.6768 201.054 96.0678C201.339 94.4685 202.001 88.7122 198.22 82.7528C197.69 81.9193 199.273 78.6459 200.218 76.6905C201.193 74.6753 202.199 72.5916 202.67 70.63C203.169 68.5463 202.607 66.7966 201.046 65.5692C199.899 64.668 198.399 64.202 197.076 63.7905C196.217 63.5232 195.243 63.2208 194.895 62.9271C194.179 62.3205 193.008 60.0775 192.068 58.276C191.025 56.2775 190.031 54.3758 189.017 53.2046C191.3 47.7235 194.966 42.8737 199.557 39.1634C203.751 42.0525 208.538 44.0457 213.625 44.4493C207.725 49.0723 205.816 54.9754 208.545 60.6464C211.731 67.2679 218.288 66.2102 224.074 65.2782C225.075 65.1164 226.11 64.9493 227.102 64.8245C227.475 64.777 227.587 64.8799 227.662 64.9467C228.928 66.0862 228.891 71.5286 228.864 75.5027C228.827 80.9996 228.792 86.1915 230.817 88.8573C231.85 90.2166 233.305 90.9111 235.01 90.9111C236.032 90.9111 237.142 90.6623 238.307 90.1577C243.342 87.9772 248.577 81.4146 247.779 76.2219C247.08 71.6825 246.619 68.6834 247.707 66.2655C248.714 64.0279 251.147 61.9565 255.939 59.3135C256.513 61.9266 256.803 64.6451 256.773 67.434C256.671 76.9534 252.907 85.8635 246.177 92.521C238.655 99.961 228.083 103.635 217.626 102.47C215.495 102.236 215.127 105.589 217.261 105.826C228.708 107.101 240.28 103.078 248.512 94.9345C255.88 87.6457 260 77.8924 260.112 67.4701C260.261 53.6504 253.248 41.4072 242.573 34.3549C244.779 32.7644 246.422 31.3893 247.333 30.5909C251.225 33.4141 254.678 36.8923 257.55 40.9447C264.445 50.6742 267.18 62.5359 265.251 74.3456C261.269 98.724 238.415 115.283 214.301 111.256C202.62 109.305 192.391 102.873 185.495 93.1435C178.6 83.414 175.865 71.5515 177.794 59.7426C178.141 57.6175 174.848 57.06 174.5 59.1922C172.425 71.8917 175.367 84.6475 182.781 95.1103C190.195 105.572 201.197 112.489 213.757 114.587C216.384 115.026 219.013 115.242 221.624 115.242C231.495 115.242 241.098 112.143 249.281 106.214C259.63 98.7169 266.471 87.5947 268.545 74.8952C270.065 65.5894 268.889 56.2538 265.236 47.8115C266.922 47.3085 269.791 46.3326 272.934 44.7456C279.495 41.4327 284.08 37.0102 286.192 31.9572C288.305 26.9034 288.246 20.4974 286.021 13.431ZM189.115 59.8516C190.357 62.2334 191.532 64.4842 192.753 65.5164C193.617 66.2471 194.82 66.6216 196.094 67.0173C199.358 68.0319 199.737 68.5296 199.424 69.8343C199.04 71.4389 198.113 73.3548 197.218 75.2073C195.494 78.7743 193.865 82.1426 195.408 84.5763C197.598 88.0255 197.973 91.4211 197.935 93.5339C187.99 84.4664 183.941 70.1447 187.645 57.1277C188.136 57.9788 188.653 58.968 189.115 59.8516ZM269.895 26.6748L265.15 15.0479C267.459 12.8648 270.138 11.2216 272.42 10.0645C274.363 9.07887 276.213 8.3412 277.695 7.81894L269.895 26.6748ZM280.774 9.12811C281.437 10.5683 282.206 12.4261 282.862 14.5257C283.582 16.8301 284.243 19.6859 284.374 22.6647L273.255 27.3035L280.774 9.12811ZM260.811 21.1129C261.303 19.9356 261.94 18.8436 262.676 17.836L268.077 31.0701L263.23 42.7893C262.549 41.3289 261.747 39.4096 261.066 37.23C259.701 32.8655 258.549 26.5254 260.811 21.1129ZM271.508 41.6912C269.637 42.6407 267.852 43.359 266.398 43.8778L271.428 31.7181L284.233 26.3759C284.046 27.8266 283.693 29.2642 283.116 30.6428C280.854 36.0553 275.555 39.639 271.508 41.6912ZM211.303 40.7302C210.712 40.6132 210.131 40.4708 209.557 40.3081L228.035 26.6115L243.251 29.6106C237.708 34.0261 224.219 43.2887 211.303 40.7302ZM194.414 30.1671C190.462 25.8607 187.566 21.2553 185.902 18.3072L205.265 22.124L194.414 30.1671ZM197.834 7.6431L205.936 18.8163L186.448 14.975C188.901 13.0161 192.951 10.075 197.834 7.6431ZM210.766 19.7685L200.945 6.22227C203.885 5.00014 207.041 4.03915 210.277 3.61096L223.863 22.349L210.766 19.7685ZM209.727 23.0032L223.575 25.7323L205.802 38.9049C202.451 37.3399 199.434 35.0899 196.795 32.5885L209.727 23.0032ZM255.032 55.9707C249.013 59.2133 246.066 61.7604 244.667 64.8676C243.166 68.2034 243.716 71.7845 244.478 76.7407C244.927 79.6632 241.493 85.1047 236.992 87.054C235.327 87.7749 234.141 87.6897 233.465 86.7999C232.138 85.0546 232.175 79.7705 232.203 75.5256C232.242 69.6523 232.277 64.5801 229.881 62.4242C229.019 61.6496 227.916 61.3217 226.691 61.4738C225.642 61.6056 224.576 61.7771 223.548 61.9433C217.41 62.9324 213.548 63.328 211.547 59.1693C208.305 52.4327 214.868 47.4431 217.839 45.6107C218.444 45.238 219.006 44.7983 219.528 44.3086C226.71 43.4408 233.497 40.3248 239.545 36.4219C246.796 40.8023 252.363 47.735 255.032 55.9707Z" fill="black"/>
</svg>
